<svg id="visual" viewBox="0 0 2560 1440" width="2560" height="1440" xmlns="http://www.w3.org/2000/svg" xmlns:xlink="http://www.w3.org/1999/xlink" version="1.1"><rect x="0" y="0" width="2560" height="1440" fill="#001122"></rect><path d="M0 1236L233 1254L465 1268L698 1232L931 1241L1164 1231L1396 1275L1629 1228L1862 1270L2095 1281L2327 1239L2560 1251L2560 1441L2327 1441L2095 1441L1862 1441L1629 1441L1396 1441L1164 1441L931 1441L698 1441L465 1441L233 1441L0 1441Z" fill="#871400"></path><path d="M0 1294L233 1280L465 1307L698 1310L931 1291L1164 1273L1396 1271L1629 1288L1862 1281L2095 1274L2327 1302L2560 1302L2560 1441L2327 1441L2095 1441L1862 1441L1629 1441L1396 1441L1164 1441L931 1441L698 1441L465 1441L233 1441L0 1441Z" fill="#ae185e"></path><path d="M0 1344L233 1329L465 1322L698 1350L931 1325L1164 1324L1396 1341L1629 1321L1862 1348L2095 1332L2327 1331L2560 1342L2560 1441L2327 1441L2095 1441L1862 1441L1629 1441L1396 1441L1164 1441L931 1441L698 1441L465 1441L233 1441L0 1441Z" fill="#9a58b9"></path><path d="M0 1380L233 1376L465 1374L698 1386L931 1388L1164 1365L1396 1370L1629 1386L1862 1392L2095 1379L2327 1381L2560 1398L2560 1441L2327 1441L2095 1441L1862 1441L1629 1441L1396 1441L1164 1441L931 1441L698 1441L465 1441L233 1441L0 1441Z" fill="#0a91f5"></path></svg>